<svg width="1920" height="1080" viewBox="0 0 1920 1080" xmlns="http://www.w3.org/2000/svg"><rect width="1920" height="1080" fill="#0300c2"/><path d="M 0,1080 C 0,1080 0,180 0,180 C 133.63333333333335,186.46410256410257 267.2666666666667,192.92820512820512 377,188 C 486.7333333333333,183.07179487179488 572.5666666666666,166.75128205128203 668,144 C 763.4333333333334,121.24871794871795 868.4666666666667,92.06666666666666 983,114 C 1097.5333333333333,135.93333333333334 1221.5666666666666,208.98205128205132 1333,222 C 1444.4333333333334,235.01794871794868 1543.2666666666667,188.0051282051282 1639,171 C 1734.7333333333333,153.9948717948718 1827.3666666666668,166.9974358974359 1920,180 C 1920,180 1920,1080 1920,1080 Z" fill="#3d1053" opacity="0.09999999999999999"/><path d="M 0,1080 C 0,1080 0,360 0,360 C 84.35384615384615,365.82564102564106 168.7076923076923,371.65128205128207 293,382 C 417.2923076923077,392.34871794871793 581.5230769230769,407.2205128205128 688,401 C 794.4769230769231,394.7794871794872 843.1999999999998,367.4666666666667 944,342 C 1044.8000000000002,316.5333333333333 1197.676923076923,292.91282051282053 1312,299 C 1426.323076923077,305.08717948717947 1502.092307692308,340.8820512820513 1597,356 C 1691.907692307692,371.1179487179487 1805.953846153846,365.55897435897435 1920,360 C 1920,360 1920,1080 1920,1080 Z" fill="#3d1053" opacity="0.19999999999999998"/><path d="M 0,1080 C 0,1080 0,540 0,540 C 99.35384615384615,545.1461538461538 198.7076923076923,550.2923076923076 304,559 C 409.2923076923077,567.7076923076924 520.523076923077,579.9769230769232 632,585 C 743.476923076923,590.0230769230768 855.1999999999998,587.8 947,579 C 1038.8000000000002,570.2 1110.6769230769232,554.823076923077 1230,535 C 1349.3230769230768,515.176923076923 1516.0923076923077,490.90769230769234 1639,491 C 1761.9076923076923,491.09230769230766 1840.9538461538461,515.5461538461539 1920,540 C 1920,540 1920,1080 1920,1080 Z" fill="#3d1053" opacity="0.3"/><path d="M 0,1080 C 0,1080 0,720 0,720 C 133.64871794871792,737.3256410256411 267.29743589743583,754.651282051282 367,771 C 466.70256410256417,787.348717948718 532.4589743589744,802.7205128205128 635,779 C 737.5410256410256,755.2794871794872 876.8666666666666,692.4666666666667 984,677 C 1091.1333333333334,661.5333333333333 1166.0743589743593,693.4128205128205 1254,707 C 1341.9256410256407,720.5871794871795 1442.8358974358973,715.8820512820513 1556,715 C 1669.1641025641027,714.1179487179487 1794.5820512820515,717.0589743589744 1920,720 C 1920,720 1920,1080 1920,1080 Z" fill="#3d1053" opacity="0.39999999999999997"/><path d="M 0,1080 C 0,1080 0,900 0,900 C 98.34615384615384,910.8358974358974 196.69230769230768,921.6717948717949 293,929 C 389.3076923076923,936.3282051282051 483.5769230769231,940.148717948718 601,947 C 718.4230769230769,953.851282051282 859,963.7333333333333 987,938 C 1115,912.2666666666667 1230.423076923077,850.9179487179487 1322,841 C 1413.576923076923,831.0820512820513 1481.3076923076922,872.5948717948719 1577,891 C 1672.6923076923078,909.4051282051281 1796.3461538461538,904.7025641025641 1920,900 C 1920,900 1920,1080 1920,1080 Z" fill="#3d1053" opacity="0.49999999999999994"/></svg>